<?xml version="1.0" encoding="UTF-8" standalone="no"?>
<svg
   viewBox="0 0 1024 1024"
   width="1024"
   height="1024"
   version="1.1"
   id="svg110"
   sodipodi:docname="grafoo-logo-2.svg"
   inkscape:version="1.3.2 (091e20e, 2023-11-25)"
   inkscape:export-filename="grafoo-logo-2.png"
   inkscape:export-xdpi="96"
   inkscape:export-ydpi="96"
   xmlns:inkscape="http://www.inkscape.org/namespaces/inkscape"
   xmlns:sodipodi="http://sodipodi.sourceforge.net/DTD/sodipodi-0.dtd"
   xmlns="http://www.w3.org/2000/svg"
   xmlns:svg="http://www.w3.org/2000/svg">
  <defs
     id="defs110" />
  <sodipodi:namedview
     id="namedview110"
     pagecolor="#ffffff"
     bordercolor="#000000"
     borderopacity="0.25"
     inkscape:showpageshadow="2"
     inkscape:pageopacity="0.0"
     inkscape:pagecheckerboard="0"
     inkscape:deskcolor="#d1d1d1"
     inkscape:zoom="1.6504648"
     inkscape:cx="737.36804"
     inkscape:cy="428.06123"
     inkscape:window-width="3008"
     inkscape:window-height="1692"
     inkscape:window-x="0"
     inkscape:window-y="0"
     inkscape:window-maximized="0"
     inkscape:current-layer="svg110" />
  <g
     fill="None"
     fill-opacity="0.0"
     stroke="#FFFFFF"
     stroke-opacity="1.00"
     stroke-width="0.3"
     id="g1">
    <path
       d=" M 0.00 1024.00  L 1024.00 1024.00 L 1024.00 0.00 L 0.00 0.00 L 0.00 1024.00 M 457.00 184.00  C 468.45 173.84 495.31 168.49 505.75 183.25 C 516.20 198.00 491.80 216.41 479.00 218.00 C 479.59 223.19 473.66 236.36 482.01 236.99 C 490.36 237.62 486.78 249.98 479.00 248.00 C 481.09 254.39 472.93 267.41 483.01 267.99 C 493.09 268.57 485.20 281.66 478.00 279.00 C 480.21 284.85 478.42 291.74 479.00 298.00 C 488.03 297.38 486.29 310.87 478.00 310.00 C 478.43 318.84 475.93 328.89 482.25 335.75 C 488.57 342.61 495.93 343.67 505.00 344.00 C 514.07 344.33 525.97 344.67 535.00 345.00 C 544.03 345.33 553.87 347.05 562.07 348.93 C 570.27 350.81 575.21 354.40 581.25 359.75 C 587.28 365.11 591.09 370.34 594.92 377.08 C 598.75 383.82 602.72 389.31 606.77 396.23 C 610.82 403.15 613.85 408.51 617.92 416.08 C 622.00 423.64 622.52 431.24 633.22 431.78 C 643.93 432.32 640.83 443.10 642.22 451.22 C 643.61 459.35 636.82 469.96 629.77 462.23 C 622.72 454.50 615.19 457.21 612.70 448.31 C 610.20 439.40 618.93 433.80 611.08 426.92 C 603.23 420.04 605.96 414.43 599.00 408.00 C 597.95 418.04 599.35 428.28 599.00 439.00 C 598.65 449.72 600.29 461.29 600.00 472.00 C 599.71 482.71 599.93 495.76 600.00 506.00 C 600.07 516.24 599.06 528.94 599.00 538.00 C 598.94 547.06 595.58 567.28 608.00 563.00 C 620.42 558.72 630.98 570.21 619.97 574.97 C 608.96 579.74 597.92 571.34 587.33 574.33 C 576.74 577.32 566.78 572.60 556.00 574.00 C 545.22 575.40 534.85 574.35 524.00 574.00 C 513.15 573.65 501.46 574.19 491.00 575.00 C 480.54 575.81 468.78 573.80 459.00 574.00 C 449.22 574.20 435.72 574.66 427.00 574.00 C 418.28 573.34 403.12 579.80 400.08 568.92 C 397.04 558.04 422.96 564.85 428.00 563.00 C 428.78 462.66 425.56 364.13 428.00 264.00 C 404.43 261.53 375.81 268.03 354.31 258.69 C 332.80 249.36 339.47 216.97 358.08 209.08 C 376.69 201.19 394.85 191.34 414.00 185.00 C 418.40 174.36 409.10 166.68 408.02 157.98 C 406.95 149.27 425.23 146.16 427.92 155.08 C 430.61 164.00 420.51 171.20 425.00 181.00 C 431.49 181.02 437.89 181.52 444.00 183.00 C 449.28 173.46 430.72 148.04 451.23 149.79 C 471.74 151.54 451.36 173.22 457.00 184.00 M 347.00 563.00  C 354.13 565.90 348.78 579.03 339.99 575.01 C 331.20 570.98 336.89 558.88 347.00 563.00 M 378.00 563.00  C 389.40 564.63 386.11 577.58 373.92 575.07 C 361.73 572.55 364.82 561.12 378.00 563.00 M 654.00 563.00  C 663.22 566.07 653.33 581.22 644.33 574.67 C 635.33 568.12 643.97 559.66 654.00 563.00 M 685.00 571.00  C 681.54 573.51 670.71 575.85 672.01 567.99 C 673.31 560.13 684.20 564.47 684.00 570.00 C 682.16 562.86 695.19 560.86 696.77 567.23 C 698.35 573.60 687.43 578.18 685.00 571.00 M 790.00 599.00  C 799.38 601.38 796.22 620.77 786.00 618.00 C 775.77 615.23 778.86 596.18 790.00 599.00 M 314.00 636.00  C 309.18 638.30 305.40 642.99 302.00 647.00 C 296.16 644.28 290.99 638.92 284.00 639.00 C 277.00 639.09 270.47 641.53 265.75 646.75 C 261.04 651.97 260.84 662.75 263.33 668.67 C 265.81 674.60 269.18 680.60 276.08 681.92 C 282.97 683.25 289.37 686.92 296.69 680.70 C 304.02 674.47 290.86 672.91 284.00 675.00 C 284.00 669.33 284.00 663.67 284.00 658.00 C 295.00 658.00 306.00 658.00 317.00 658.00 C 318.93 674.13 318.85 693.89 302.75 697.20 C 286.66 700.50 272.72 702.45 259.77 692.23 C 246.82 682.01 242.75 666.64 246.00 652.00 C 249.24 637.36 260.59 627.91 274.01 624.01 C 287.43 620.11 305.92 623.47 314.00 636.00 M 747.00 622.00  C 776.34 622.26 795.23 656.56 780.23 681.23 C 765.23 705.90 728.60 706.60 713.23 681.77 C 697.86 656.94 717.03 621.73 747.00 622.00 M 376.00 677.00  C 371.33 677.00 366.67 677.00 362.00 677.00 C 360.22 686.00 367.02 699.16 355.33 701.33 C 343.64 703.49 344.22 690.71 344.02 681.98 C 343.83 673.24 343.14 659.10 345.00 651.00 C 346.86 642.90 339.99 627.46 347.70 623.70 C 355.41 619.93 369.08 625.92 378.00 624.00 C 386.92 622.08 392.94 627.85 399.75 633.25 C 406.57 638.64 405.42 650.14 404.67 657.67 C 403.93 665.21 389.69 668.98 391.79 675.23 C 393.88 681.48 401.83 686.67 404.92 694.08 C 408.02 701.48 392.04 704.67 387.25 697.75 C 382.45 690.84 378.47 684.75 376.00 677.00 M 474.00 623.00  C 478.94 625.44 479.51 637.44 482.77 642.23 C 486.03 647.02 487.71 656.68 490.77 662.23 C 493.83 667.78 495.93 676.57 498.77 682.23 C 501.61 687.88 507.61 699.08 497.93 700.93 C 488.24 702.77 485.82 696.93 482.23 688.77 C 478.64 680.61 465.65 687.68 457.00 685.00 C 448.35 682.32 449.16 696.50 443.70 699.70 C 438.23 702.90 424.87 702.99 429.78 691.78 C 434.68 680.56 441.54 663.11 446.31 652.31 C 451.08 641.50 456.06 614.13 474.00 623.00 M 545.00 640.00  C 545.00 645.33 545.00 650.67 545.00 656.00 C 555.59 656.64 566.86 654.71 577.00 657.00 C 575.59 663.39 579.74 673.22 570.00 672.00 C 560.26 670.78 554.39 672.91 545.00 672.00 C 544.87 679.49 548.98 691.52 544.23 698.23 C 539.48 704.93 527.82 701.15 528.22 691.78 C 528.62 682.41 527.96 671.94 528.00 662.00 C 528.04 652.06 528.59 642.46 528.00 632.00 C 527.41 621.54 539.08 621.57 548.00 623.00 C 556.92 624.43 566.84 624.42 576.00 623.00 C 585.17 621.59 585.26 642.13 575.00 640.00 C 564.74 637.87 555.20 641.60 545.00 640.00 M 653.00 623.00  C 681.69 627.10 692.91 665.36 673.75 685.75 C 654.59 706.13 619.44 704.69 608.08 675.92 C 596.72 647.16 622.30 618.61 653.00 623.00 M 385.00 748.00  C 382.56 746.26 375.37 743.73 376.00 749.00 C 378.52 749.56 382.30 747.81 384.00 750.00 C 382.51 751.77 379.41 748.99 377.00 750.00 C 376.83 753.63 377.12 756.03 379.00 752.00 C 383.29 753.21 380.23 762.74 375.99 760.99 C 371.75 759.24 374.99 748.26 374.33 744.33 C 373.67 740.40 390.30 742.02 385.00 748.00 M 415.00 761.00  C 409.44 757.67 403.17 757.30 398.00 761.00 C 399.82 754.34 403.59 748.53 406.00 742.00 C 410.32 747.23 415.64 753.51 415.00 761.00 M 441.00 744.00  C 440.76 747.84 432.25 744.65 430.75 747.75 C 429.26 750.86 429.55 757.57 435.03 756.97 C 440.51 756.38 437.22 752.11 434.00 751.00 C 451.01 745.53 440.21 767.34 430.25 758.75 C 420.30 750.15 432.70 739.05 441.00 744.00 M 456.00 762.00  C 458.13 755.70 456.22 748.39 458.00 742.00 C 459.71 746.61 465.08 762.89 456.00 762.00 M 475.00 762.00  C 469.25 759.20 472.25 747.15 473.00 742.00 C 477.14 747.23 474.04 755.52 475.00 762.00 M 502.00 746.00  C 497.55 743.61 489.92 745.90 490.03 752.03 C 490.13 758.15 502.59 757.68 496.00 751.00 C 499.44 750.38 502.61 748.46 506.00 750.00 C 508.50 748.67 505.43 744.26 508.00 743.00 C 509.57 747.56 508.58 753.40 509.00 759.00 C 505.63 759.58 508.25 754.28 505.00 754.00 C 503.77 762.24 489.17 763.07 486.23 754.77 C 483.29 746.47 496.70 736.67 502.00 746.00 M 536.00 747.00  C 524.46 741.87 532.66 758.25 527.00 761.00 C 524.90 756.81 526.50 751.60 526.00 747.00 C 509.04 745.54 537.63 735.29 536.00 747.00 M 567.00 749.00  C 572.59 750.48 575.41 747.58 574.00 742.00 C 581.29 742.61 578.24 759.72 574.00 761.00 C 575.79 756.58 575.51 753.43 570.00 754.00 C 564.49 754.57 569.68 762.61 563.00 761.00 C 563.00 754.67 563.00 748.33 563.00 742.00 C 566.98 741.12 567.25 746.19 567.00 749.00 M 602.00 762.00  C 601.53 756.53 592.19 756.47 592.00 762.00 C 582.53 759.51 596.26 748.68 595.00 742.00 C 600.12 744.17 607.96 758.13 602.00 762.00 M 634.00 742.00  C 632.40 747.74 637.45 759.26 631.00 761.00 C 631.23 757.83 630.95 754.88 630.00 752.00 C 626.22 751.36 627.41 757.33 624.00 757.00 C 622.61 755.49 622.30 752.85 621.00 751.00 C 618.92 753.10 620.50 757.15 620.00 760.00 C 612.06 759.93 617.31 747.29 617.00 742.00 C 621.53 740.45 620.98 748.76 624.75 748.59 C 628.52 748.41 629.22 740.57 634.00 742.00 M 658.00 746.00  C 649.05 744.12 648.95 750.95 657.00 751.00 C 654.98 753.73 649.56 752.12 650.00 757.00 C 653.33 757.22 659.49 755.44 658.00 761.00 C 654.00 761.00 650.00 761.00 646.00 761.00 C 647.36 755.17 645.17 748.49 646.00 742.00 C 649.93 742.83 658.54 739.42 658.00 746.00 M 535.00 782.00  C 538.05 786.02 531.70 786.50 529.00 786.00 C 527.07 791.87 533.94 788.64 536.00 791.00 C 534.08 792.92 527.94 791.20 529.00 796.00 C 532.07 796.59 537.37 796.21 536.00 801.00 C 532.54 801.21 529.60 799.30 526.00 800.00 C 525.61 793.93 525.18 789.03 526.00 783.00 C 529.03 782.74 532.37 783.74 535.00 782.00 M 557.00 786.00  C 547.82 783.25 546.25 798.83 557.00 794.00 C 557.39 804.69 545.73 798.17 545.22 791.78 C 544.72 785.38 554.15 778.31 557.00 786.00 M 574.00 787.00  C 574.05 791.86 574.46 796.80 572.00 801.00 C 567.88 798.07 570.95 791.44 570.00 787.00 C 567.86 786.11 565.24 784.94 566.00 782.00 C 569.74 784.54 573.16 781.66 577.02 782.02 C 580.89 782.38 577.82 791.02 574.00 787.00 M 445.00 800.00  C 437.12 798.91 443.22 788.33 442.00 783.00 C 446.73 781.96 453.75 783.99 452.66 789.68 C 451.57 795.37 442.85 793.02 445.00 800.00 M 474.00 790.00  C 467.42 792.53 472.22 797.23 474.00 801.00 C 469.94 800.85 467.89 797.00 466.00 794.00 C 463.52 795.09 466.89 800.40 463.00 800.00 C 461.61 794.62 462.03 788.73 462.00 783.00 C 467.39 781.97 473.24 784.20 474.00 790.00 M 492.00 783.00  C 501.79 784.94 498.99 801.68 489.00 800.00 C 479.01 798.31 481.31 780.88 492.00 783.00 M 505.00 796.00  C 513.07 796.72 512.97 789.39 511.00 783.00 C 520.13 784.34 512.82 809.03 505.00 796.00 Z"
       id="path1" />
  </g>
  <g
     fill="None"
     fill-opacity="0.0"
     stroke="#000000"
     stroke-opacity="1.00"
     stroke-width="0.3"
     id="g2">
    <path
       d=" M 457.00 184.00  C 451.36 173.22 471.74 151.54 451.23 149.79 C 430.72 148.04 449.28 173.46 444.00 183.00 C 437.89 181.52 431.49 181.02 425.00 181.00 C 420.51 171.20 430.61 164.00 427.92 155.08 C 425.23 146.16 406.95 149.27 408.02 157.98 C 409.10 166.68 418.40 174.36 414.00 185.00 C 394.85 191.34 376.69 201.19 358.08 209.08 C 339.47 216.97 332.80 249.36 354.31 258.69 C 375.81 268.03 404.43 261.53 428.00 264.00 C 425.56 364.13 428.78 462.66 428.00 563.00 C 422.96 564.85 397.04 558.04 400.08 568.92 C 403.12 579.80 418.28 573.34 427.00 574.00 C 435.72 574.66 449.22 574.20 459.00 574.00 C 468.78 573.80 480.54 575.81 491.00 575.00 C 501.46 574.19 513.15 573.65 524.00 574.00 C 534.85 574.35 545.22 575.40 556.00 574.00 C 566.78 572.60 576.74 577.32 587.33 574.33 C 597.92 571.34 608.96 579.74 619.97 574.97 C 630.98 570.21 620.42 558.72 608.00 563.00 C 595.58 567.28 598.94 547.06 599.00 538.00 C 599.06 528.94 600.07 516.24 600.00 506.00 C 599.93 495.76 599.71 482.71 600.00 472.00 C 600.29 461.29 598.65 449.72 599.00 439.00 C 599.35 428.28 597.95 418.04 599.00 408.00 C 605.96 414.43 603.23 420.04 611.08 426.92 C 618.93 433.80 610.20 439.40 612.70 448.31 C 615.19 457.21 622.72 454.50 629.77 462.23 C 636.82 469.96 643.61 459.35 642.22 451.22 C 640.83 443.10 643.93 432.32 633.22 431.78 C 622.52 431.24 622.00 423.64 617.92 416.08 C 613.85 408.51 610.82 403.15 606.77 396.23 C 602.72 389.31 598.75 383.82 594.92 377.08 C 591.09 370.34 587.28 365.11 581.25 359.75 C 575.21 354.40 570.27 350.81 562.07 348.93 C 553.87 347.05 544.03 345.33 535.00 345.00 C 525.97 344.67 514.07 344.33 505.00 344.00 C 495.93 343.67 488.57 342.61 482.25 335.75 C 475.93 328.89 478.43 318.84 478.00 310.00 C 486.29 310.87 488.03 297.38 479.00 298.00 C 478.42 291.74 480.21 284.85 478.00 279.00 C 485.20 281.66 493.09 268.57 483.01 267.99 C 472.93 267.41 481.09 254.39 479.00 248.00 C 486.78 249.98 490.36 237.62 482.01 236.99 C 473.66 236.36 479.59 223.19 479.00 218.00 C 491.80 216.41 516.20 198.00 505.75 183.25 C 495.31 168.49 468.45 173.84 457.00 184.00 M 495.00 190.00  C 489.73 210.15 465.53 205.30 450.00 209.00 C 450.21 217.93 460.62 218.93 467.00 221.00 C 467.38 245.39 468.28 272.85 467.07 296.07 C 465.87 319.29 462.77 344.69 488.00 355.00 C 484.15 362.21 485.40 371.98 495.00 372.00 C 504.61 372.02 505.99 362.44 501.00 356.00 C 526.50 357.60 562.32 349.90 578.75 375.25 C 595.18 400.59 584.54 433.82 587.00 464.00 C 589.46 494.18 585.15 530.28 587.00 561.00 C 574.06 566.47 574.24 554.86 575.00 545.00 C 575.76 535.14 574.79 524.55 574.07 514.93 C 573.35 505.30 574.27 493.60 574.00 484.00 C 573.73 474.40 574.10 462.08 574.00 453.00 C 573.90 443.92 576.09 433.00 565.92 430.08 C 555.76 427.15 547.56 429.92 536.98 428.02 C 526.40 426.13 517.46 429.39 506.00 428.00 C 494.54 426.61 494.70 437.75 496.00 447.00 C 497.30 456.25 495.29 468.36 496.00 478.00 C 496.71 487.64 495.42 499.44 496.00 509.00 C 496.58 518.56 495.15 531.03 496.00 540.00 C 496.85 548.97 497.64 565.41 487.00 562.00 C 476.36 558.59 485.28 543.99 483.00 535.00 C 480.72 526.01 484.24 513.53 483.00 504.00 C 481.76 494.47 484.02 482.53 483.00 473.00 C 481.98 463.47 484.48 450.99 483.00 442.00 C 481.52 433.01 475.61 428.52 466.99 427.01 C 458.37 425.50 449.14 432.52 451.00 442.00 C 452.86 451.48 449.77 460.90 451.00 471.00 C 452.23 481.10 449.60 491.03 450.00 501.00 C 450.40 510.97 451.37 520.75 451.00 531.00 C 450.63 541.25 451.28 551.73 451.00 562.00 C 433.15 565.73 439.50 545.67 439.00 533.00 C 438.50 520.33 438.88 504.20 439.00 491.00 C 439.12 477.80 437.95 464.42 438.33 451.33 C 438.71 438.24 439.36 424.17 440.00 411.00 C 440.64 397.83 437.61 383.54 439.00 370.00 C 445.05 375.42 457.56 375.74 458.78 365.78 C 459.99 355.82 444.18 352.11 440.00 360.00 C 438.05 348.14 439.17 333.06 439.00 321.00 C 438.83 308.94 440.63 295.52 440.00 284.00 C 439.37 272.48 445.33 252.99 432.00 252.00 C 418.67 251.01 406.52 250.78 393.00 251.00 C 395.03 236.36 388.54 223.84 382.00 212.00 C 402.95 203.98 422.75 190.82 447.00 194.00 C 445.56 217.09 464.47 192.49 473.08 189.08 C 481.68 185.66 486.93 187.04 495.00 190.00 M 372.00 217.00  C 374.39 222.39 378.18 228.41 379.93 234.07 C 381.67 239.74 386.09 250.76 378.00 251.00 C 369.90 251.23 365.21 249.05 359.25 244.75 C 353.30 240.45 353.00 233.08 356.77 227.77 C 360.54 222.46 365.67 218.28 372.00 217.00 M 522.00 438.00  C 522.32 478.74 521.77 521.44 522.00 563.00 C 517.33 563.00 512.67 563.00 508.00 563.00 C 508.00 521.33 508.00 479.67 508.00 438.00 C 512.67 438.00 517.33 438.00 522.00 438.00 M 545.00 438.00  C 546.37 478.80 544.44 520.83 544.00 562.00 C 540.33 562.00 536.67 562.00 533.00 562.00 C 533.04 550.82 532.94 539.13 533.00 528.00 C 533.06 516.87 532.89 504.94 533.00 494.00 C 533.11 483.06 532.77 470.49 533.00 460.00 C 533.23 449.51 530.63 434.66 545.00 438.00 M 563.00 564.00  C 550.34 563.67 557.36 547.83 556.99 537.99 C 556.63 528.16 557.47 514.57 557.00 504.00 C 556.53 493.43 558.39 481.77 558.00 471.00 C 557.61 460.23 559.06 448.40 557.00 438.00 C 566.18 442.14 561.14 456.00 562.00 466.00 C 562.86 476.00 561.69 488.50 562.00 499.00 C 562.31 509.50 561.60 520.63 562.98 531.02 C 564.35 541.42 562.00 553.46 563.00 564.00 M 464.00 439.00  C 475.77 438.33 469.80 452.07 471.00 461.00 C 472.20 469.93 469.78 481.49 471.00 491.00 C 472.22 500.51 468.94 511.25 471.00 521.00 C 473.06 530.75 469.34 539.64 472.00 550.00 C 474.66 560.36 464.96 569.20 463.07 557.93 C 461.19 546.66 465.41 539.69 464.00 529.00 C 462.59 518.31 464.66 509.32 464.00 499.00 C 463.34 488.68 464.34 479.17 464.00 469.00 C 463.66 458.83 464.26 449.13 464.00 439.00 Z"
       id="path2" />
  </g>
  <g
     fill="None"
     fill-opacity="0.0"
     stroke="#FFFFFF"
     stroke-opacity="1.00"
     stroke-width="0.3"
     id="g3">
    <path
       d=" M 495.00 190.00  C 486.93 187.04 481.68 185.66 473.08 189.08 C 464.47 192.49 445.56 217.09 447.00 194.00 C 422.75 190.82 402.95 203.98 382.00 212.00 C 388.54 223.84 395.03 236.36 393.00 251.00 C 406.52 250.78 418.67 251.01 432.00 252.00 C 445.33 252.99 439.37 272.48 440.00 284.00 C 440.63 295.52 438.83 308.94 439.00 321.00 C 439.17 333.06 438.05 348.14 440.00 360.00 C 444.18 352.11 459.99 355.82 458.78 365.78 C 457.56 375.74 445.05 375.42 439.00 370.00 C 437.61 383.54 440.64 397.83 440.00 411.00 C 439.36 424.17 438.71 438.24 438.33 451.33 C 437.95 464.42 439.12 477.80 439.00 491.00 C 438.88 504.20 438.50 520.33 439.00 533.00 C 439.50 545.67 433.15 565.73 451.00 562.00 C 451.28 551.73 450.63 541.25 451.00 531.00 C 451.37 520.75 450.40 510.97 450.00 501.00 C 449.60 491.03 452.23 481.10 451.00 471.00 C 449.77 460.90 452.86 451.48 451.00 442.00 C 449.14 432.52 458.37 425.50 466.99 427.01 C 475.61 428.52 481.52 433.01 483.00 442.00 C 484.48 450.99 481.98 463.47 483.00 473.00 C 484.02 482.53 481.76 494.47 483.00 504.00 C 484.24 513.53 480.72 526.01 483.00 535.00 C 485.28 543.99 476.36 558.59 487.00 562.00 C 497.64 565.41 496.85 548.97 496.00 540.00 C 495.15 531.03 496.58 518.56 496.00 509.00 C 495.42 499.44 496.71 487.64 496.00 478.00 C 495.29 468.36 497.30 456.25 496.00 447.00 C 494.70 437.75 494.54 426.61 506.00 428.00 C 517.46 429.39 526.40 426.13 536.98 428.02 C 547.56 429.92 555.76 427.15 565.92 430.08 C 576.09 433.00 573.90 443.92 574.00 453.00 C 574.10 462.08 573.73 474.40 574.00 484.00 C 574.27 493.60 573.35 505.30 574.07 514.93 C 574.79 524.55 575.76 535.14 575.00 545.00 C 574.24 554.86 574.06 566.47 587.00 561.00 C 585.15 530.28 589.46 494.18 587.00 464.00 C 584.54 433.82 595.18 400.59 578.75 375.25 C 562.32 349.90 526.50 357.60 501.00 356.00 C 505.99 362.44 504.61 372.02 495.00 372.00 C 485.40 371.98 484.15 362.21 488.00 355.00 C 462.77 344.69 465.87 319.29 467.07 296.07 C 468.28 272.85 467.38 245.39 467.00 221.00 C 460.62 218.93 450.21 217.93 450.00 209.00 C 465.53 205.30 489.73 210.15 495.00 190.00 M 423.00 214.00  C 432.41 217.31 428.65 233.90 417.78 230.22 C 406.91 226.54 411.79 210.06 423.00 214.00 M 457.00 276.00  C 467.57 278.07 465.04 294.76 454.00 293.00 C 442.96 291.24 445.75 273.79 457.00 276.00 M 458.00 316.00  C 464.78 319.40 457.03 333.81 449.78 328.22 C 442.53 322.63 450.66 312.32 458.00 316.00 M 556.00 364.00  C 565.96 365.02 565.59 383.51 553.92 381.07 C 542.26 378.63 544.97 362.87 556.00 364.00 M 518.00 383.00  C 529.51 383.11 529.65 401.81 517.99 401.99 C 506.33 402.17 505.84 382.88 518.00 383.00 M 477.00 391.00  C 489.04 392.70 486.20 411.68 474.00 410.00 C 461.79 408.31 465.00 389.31 477.00 391.00 Z"
       id="path3" />
  </g>
  <g
     fill="None"
     fill-opacity="0.0"
     stroke="#000000"
     stroke-opacity="1.00"
     stroke-width="0.3"
     id="g4">
    <path
       d=" M 423.00 214.00  C 411.79 210.06 406.91 226.54 417.78 230.22 C 428.65 233.90 432.41 217.31 423.00 214.00 Z"
       id="path4" />
  </g>
  <g
     fill="None"
     fill-opacity="0.0"
     stroke="#FFFFFF"
     stroke-opacity="1.00"
     stroke-width="0.3"
     id="g5">
    <path
       d=" M 372.00 217.00  C 365.67 218.28 360.54 222.46 356.77 227.77 C 353.00 233.08 353.30 240.45 359.25 244.75 C 365.21 249.05 369.90 251.23 378.00 251.00 C 386.09 250.76 381.67 239.74 379.93 234.07 C 378.18 228.41 374.39 222.39 372.00 217.00 M 366.00 230.00  C 371.15 230.73 371.13 240.17 364.99 239.99 C 358.86 239.81 359.68 229.10 366.00 230.00 Z"
       id="path5" />
  </g>
  <g
     fill="None"
     fill-opacity="0.0"
     stroke="#000000"
     stroke-opacity="1.00"
     stroke-width="0.3"
     id="g6">
    <path
       d=" M 366.00 230.00  C 359.68 229.10 358.86 239.81 364.99 239.99 C 371.13 240.17 371.15 230.73 366.00 230.00 Z"
       id="path6" />
  </g>
  <g
     fill="None"
     fill-opacity="0.0"
     stroke="#000000"
     stroke-opacity="1.00"
     stroke-width="0.3"
     id="g7">
    <path
       d=" M 457.00 276.00  C 445.75 273.79 442.96 291.24 454.00 293.00 C 465.04 294.76 467.57 278.07 457.00 276.00 Z"
       id="path7" />
  </g>
  <g
     fill="None"
     fill-opacity="0.0"
     stroke="#000000"
     stroke-opacity="1.00"
     stroke-width="0.3"
     id="g8">
    <path
       d=" M 458.00 316.00  C 450.66 312.32 442.53 322.63 449.78 328.22 C 457.03 333.81 464.78 319.40 458.00 316.00 Z"
       id="path8" />
  </g>
  <g
     fill="None"
     fill-opacity="0.0"
     stroke="#000000"
     stroke-opacity="1.00"
     stroke-width="0.3"
     id="g9">
    <path
       d=" M 556.00 364.00  C 544.97 362.87 542.26 378.63 553.92 381.07 C 565.59 383.51 565.96 365.02 556.00 364.00 Z"
       id="path9" />
  </g>
  <g
     fill="None"
     fill-opacity="0.0"
     stroke="#000000"
     stroke-opacity="1.00"
     stroke-width="0.3"
     id="g10">
    <path
       d=" M 518.00 383.00  C 505.84 382.88 506.33 402.17 517.99 401.99 C 529.65 401.81 529.51 383.11 518.00 383.00 Z"
       id="path10" />
  </g>
  <g
     fill="None"
     fill-opacity="0.0"
     stroke="#000000"
     stroke-opacity="1.00"
     stroke-width="0.3"
     id="g11">
    <path
       d=" M 477.00 391.00  C 465.00 389.31 461.79 408.31 474.00 410.00 C 486.20 411.68 489.04 392.70 477.00 391.00 Z"
       id="path11" />
  </g>
  <g
     fill="None"
     fill-opacity="0.0"
     stroke="#FFFFFF"
     stroke-opacity="1.00"
     stroke-width="0.3"
     id="g12">
    <path
       d=" M 522.00 438.00  C 517.33 438.00 512.67 438.00 508.00 438.00 C 508.00 479.67 508.00 521.33 508.00 563.00 C 512.67 563.00 517.33 563.00 522.00 563.00 C 521.77 521.44 522.32 478.74 522.00 438.00 Z"
       id="path12" />
  </g>
  <g
     fill="None"
     fill-opacity="0.0"
     stroke="#FFFFFF"
     stroke-opacity="1.00"
     stroke-width="0.3"
     id="g13">
    <path
       d=" M 545.00 438.00  C 530.63 434.66 533.23 449.51 533.00 460.00 C 532.77 470.49 533.11 483.06 533.00 494.00 C 532.89 504.94 533.06 516.87 533.00 528.00 C 532.94 539.13 533.04 550.82 533.00 562.00 C 536.67 562.00 540.33 562.00 544.00 562.00 C 544.44 520.83 546.37 478.80 545.00 438.00 Z"
       id="path13" />
  </g>
  <g
     fill="None"
     fill-opacity="0.0"
     stroke="#FFFFFF"
     stroke-opacity="1.00"
     stroke-width="0.3"
     id="g14">
    <path
       d=" M 563.00 564.00  C 562.00 553.46 564.35 541.42 562.98 531.02 C 561.60 520.63 562.31 509.50 562.00 499.00 C 561.69 488.50 562.86 476.00 562.00 466.00 C 561.14 456.00 566.18 442.14 557.00 438.00 C 559.06 448.40 557.61 460.23 558.00 471.00 C 558.39 481.77 556.53 493.43 557.00 504.00 C 557.47 514.57 556.63 528.16 556.99 537.99 C 557.36 547.83 550.34 563.67 563.00 564.00 Z"
       id="path14" />
  </g>
  <g
     fill="None"
     fill-opacity="0.0"
     stroke="#FFFFFF"
     stroke-opacity="1.00"
     stroke-width="0.3"
     id="g15">
    <path
       d=" M 464.00 439.00  C 464.26 449.13 463.66 458.83 464.00 469.00 C 464.34 479.17 463.34 488.68 464.00 499.00 C 464.66 509.32 462.59 518.31 464.00 529.00 C 465.41 539.69 461.19 546.66 463.07 557.93 C 464.96 569.20 474.66 560.36 472.00 550.00 C 469.34 539.64 473.06 530.75 471.00 521.00 C 468.94 511.25 472.22 500.51 471.00 491.00 C 469.78 481.49 472.20 469.93 471.00 461.00 C 469.80 452.07 475.77 438.33 464.00 439.00 Z"
       id="path15" />
  </g>
  <g
     fill="None"
     fill-opacity="0.0"
     stroke="#000000"
     stroke-opacity="1.00"
     stroke-width="0.3"
     id="g16">
    <path
       d=" M 347.00 563.00  C 336.89 558.88 331.20 570.98 339.99 575.01 C 348.78 579.03 354.13 565.90 347.00 563.00 Z"
       id="path16" />
  </g>
  <g
     fill="None"
     fill-opacity="0.0"
     stroke="#000000"
     stroke-opacity="1.00"
     stroke-width="0.3"
     id="g17">
    <path
       d=" M 378.00 563.00  C 364.82 561.12 361.73 572.55 373.92 575.07 C 386.11 577.58 389.40 564.63 378.00 563.00 Z"
       id="path17" />
  </g>
  <g
     fill="None"
     fill-opacity="0.0"
     stroke="#000000"
     stroke-opacity="1.00"
     stroke-width="0.3"
     id="g18">
    <path
       d=" M 654.00 563.00  C 643.97 559.66 635.33 568.12 644.33 574.67 C 653.33 581.22 663.22 566.07 654.00 563.00 Z"
       id="path18" />
  </g>
  <g
     fill="None"
     fill-opacity="0.0"
     stroke="#000000"
     stroke-opacity="1.00"
     stroke-width="0.3"
     id="g19">
    <path
       d=" M 685.00 571.00  C 687.43 578.18 698.35 573.60 696.77 567.23 C 695.19 560.86 682.16 562.86 684.00 570.00 C 684.20 564.47 673.31 560.13 672.01 567.99 C 670.71 575.85 681.54 573.51 685.00 571.00 Z"
       id="path19" />
  </g>
  <g
     fill="None"
     fill-opacity="0.0"
     stroke="#000000"
     stroke-opacity="1.00"
     stroke-width="0.3"
     id="g23">
    <path
       d=" M 314.00 636.00  C 305.92 623.47 287.43 620.11 274.01 624.01 C 260.59 627.91 249.24 637.36 246.00 652.00 C 242.75 666.64 246.82 682.01 259.77 692.23 C 272.72 702.45 286.66 700.50 302.75 697.20 C 318.85 693.89 318.93 674.13 317.00 658.00 C 306.00 658.00 295.00 658.00 284.00 658.00 C 284.00 663.67 284.00 669.33 284.00 675.00 C 290.86 672.91 304.02 674.47 296.69 680.70 C 289.37 686.92 282.97 683.25 276.08 681.92 C 269.18 680.60 265.81 674.60 263.33 668.67 C 260.84 662.75 261.04 651.97 265.75 646.75 C 270.47 641.53 277.00 639.09 284.00 639.00 C 290.99 638.92 296.16 644.28 302.00 647.00 C 305.40 642.99 309.18 638.30 314.00 636.00 Z"
       id="path23" />
  </g>
  <g
     fill="None"
     fill-opacity="0.0"
     stroke="#000000"
     stroke-opacity="1.00"
     stroke-width="0.3"
     id="g24">
    <path
       d=" M 747.00 622.00  C 717.03 621.73 697.86 656.94 713.23 681.77 C 728.60 706.60 765.23 705.90 780.23 681.23 C 795.23 656.56 776.34 622.26 747.00 622.00 M 752.00 640.00  C 778.85 645.95 768.11 690.17 740.78 682.22 C 713.45 674.27 723.83 633.76 752.00 640.00 Z"
       id="path24" />
  </g>
  <g
     fill="None"
     fill-opacity="0.0"
     stroke="#000000"
     stroke-opacity="1.00"
     stroke-width="0.3"
     id="g25">
    <path
       d=" M 376.00 677.00  C 378.47 684.75 382.45 690.84 387.25 697.75 C 392.04 704.67 408.02 701.48 404.92 694.08 C 401.83 686.67 393.88 681.48 391.79 675.23 C 389.69 668.98 403.93 665.21 404.67 657.67 C 405.42 650.14 406.57 638.64 399.75 633.25 C 392.94 627.85 386.92 622.08 378.00 624.00 C 369.08 625.92 355.41 619.93 347.70 623.70 C 339.99 627.46 346.86 642.90 345.00 651.00 C 343.14 659.10 343.83 673.24 344.02 681.98 C 344.22 690.71 343.64 703.49 355.33 701.33 C 367.02 699.16 360.22 686.00 362.00 677.00 C 366.67 677.00 371.33 677.00 376.00 677.00 M 362.00 661.00  C 361.41 654.07 363.23 646.49 361.00 640.00 C 370.20 640.78 386.74 636.34 387.98 650.02 C 389.21 663.71 371.13 661.34 362.00 661.00 Z"
       id="path25" />
  </g>
  <g
     fill="None"
     fill-opacity="0.0"
     stroke="#000000"
     stroke-opacity="1.00"
     stroke-width="0.3"
     id="g26">
    <path
       d=" M 474.00 623.00  C 456.06 614.13 451.08 641.50 446.31 652.31 C 441.54 663.11 434.68 680.56 429.78 691.78 C 424.87 702.99 438.23 702.90 443.70 699.70 C 449.16 696.50 448.35 682.32 457.00 685.00 C 465.65 687.68 478.64 680.61 482.23 688.77 C 485.82 696.93 488.24 702.77 497.93 700.93 C 507.61 699.08 501.61 687.88 498.77 682.23 C 495.93 676.57 493.83 667.78 490.77 662.23 C 487.71 656.68 486.03 647.02 482.77 642.23 C 479.51 637.44 478.94 625.44 474.00 623.00 M 466.00 645.00  C 468.83 653.36 471.91 661.71 475.00 670.00 C 469.09 669.41 463.18 668.57 457.00 669.00 C 460.39 661.24 462.34 652.31 466.00 645.00 Z"
       id="path26" />
  </g>
  <g
     fill="None"
     fill-opacity="0.0"
     stroke="#000000"
     stroke-opacity="1.00"
     stroke-width="0.3"
     id="g27">
    <path
       d=" M 545.00 640.00  C 555.20 641.60 564.74 637.87 575.00 640.00 C 585.26 642.13 585.17 621.59 576.00 623.00 C 566.84 624.42 556.92 624.43 548.00 623.00 C 539.08 621.57 527.41 621.54 528.00 632.00 C 528.59 642.46 528.04 652.06 528.00 662.00 C 527.96 671.94 528.62 682.41 528.22 691.78 C 527.82 701.15 539.48 704.93 544.23 698.23 C 548.98 691.52 544.87 679.49 545.00 672.00 C 554.39 672.91 560.26 670.78 570.00 672.00 C 579.74 673.22 575.59 663.39 577.00 657.00 C 566.86 654.71 555.59 656.64 545.00 656.00 C 545.00 650.67 545.00 645.33 545.00 640.00 Z"
       id="path27" />
  </g>
  <g
     fill="None"
     fill-opacity="0.0"
     stroke="#000000"
     stroke-opacity="1.00"
     stroke-width="0.3"
     id="g28">
    <path
       d=" M 653.00 623.00  C 622.30 618.61 596.72 647.16 608.08 675.92 C 619.44 704.69 654.59 706.13 673.75 685.75 C 692.91 665.36 681.69 627.10 653.00 623.00 M 650.00 640.00  C 665.42 643.20 670.94 664.96 659.75 675.75 C 648.56 686.54 629.49 685.09 623.23 668.77 C 616.97 652.45 632.86 636.45 650.00 640.00 Z"
       id="path28" />
  </g>
  <g
     fill="None"
     fill-opacity="0.0"
     stroke="#FFFFFF"
     stroke-opacity="1.00"
     stroke-width="0.3"
     id="g29">
    <path
       d=" M 362.00 661.00  C 371.13 661.34 389.21 663.71 387.98 650.02 C 386.74 636.34 370.20 640.78 361.00 640.00 C 363.23 646.49 361.41 654.07 362.00 661.00 Z"
       id="path29" />
  </g>
  <g
     fill="None"
     fill-opacity="0.0"
     stroke="#FFFFFF"
     stroke-opacity="1.00"
     stroke-width="0.3"
     id="g30">
    <path
       d=" M 650.00 640.00  C 632.86 636.45 616.97 652.45 623.23 668.77 C 629.49 685.09 648.56 686.54 659.75 675.75 C 670.94 664.96 665.42 643.20 650.00 640.00 Z"
       id="path30" />
  </g>
  <g
     fill="None"
     fill-opacity="0.0"
     stroke="#FFFFFF"
     stroke-opacity="1.00"
     stroke-width="0.3"
     id="g31">
    <path
       d=" M 752.00 640.00  C 723.83 633.76 713.45 674.27 740.78 682.22 C 768.11 690.17 778.85 645.95 752.00 640.00 Z"
       id="path31" />
  </g>
  <g
     fill="None"
     fill-opacity="0.0"
     stroke="#FFFFFF"
     stroke-opacity="1.00"
     stroke-width="0.3"
     id="g32">
    <path
       d=" M 466.00 645.00  C 462.34 652.31 460.39 661.24 457.00 669.00 C 463.18 668.57 469.09 669.41 475.00 670.00 C 471.91 661.71 468.83 653.36 466.00 645.00 Z"
       id="path32" />
  </g>
  <g
     fill="#000000"
     fill-opacity="1.00"
     stroke="None"
     id="g57">
    <path
       d=" M 457.00 184.00  C 451.36 173.22 471.74 151.54 451.23 149.79 C 430.72 148.04 449.28 173.46 444.00 183.00 C 437.89 181.52 431.49 181.02 425.00 181.00 C 420.51 171.20 430.61 164.00 427.92 155.08 C 425.23 146.16 406.95 149.27 408.02 157.98 C 409.10 166.68 418.40 174.36 414.00 185.00 C 394.85 191.34 376.69 201.19 358.08 209.08 C 339.47 216.97 332.80 249.36 354.31 258.69 C 375.81 268.03 404.43 261.53 428.00 264.00 C 425.56 364.13 428.78 462.66 428.00 563.00 C 422.96 564.85 397.04 558.04 400.08 568.92 C 403.12 579.80 418.28 573.34 427.00 574.00 C 435.72 574.66 449.22 574.20 459.00 574.00 C 468.78 573.80 480.54 575.81 491.00 575.00 C 501.46 574.19 513.15 573.65 524.00 574.00 C 534.85 574.35 545.22 575.40 556.00 574.00 C 566.78 572.60 576.74 577.32 587.33 574.33 C 597.92 571.34 608.96 579.74 619.97 574.97 C 630.98 570.21 620.42 558.72 608.00 563.00 C 595.58 567.28 598.94 547.06 599.00 538.00 C 599.06 528.94 600.07 516.24 600.00 506.00 C 599.93 495.76 599.71 482.71 600.00 472.00 C 600.29 461.29 598.65 449.72 599.00 439.00 C 599.35 428.28 597.95 418.04 599.00 408.00 C 605.96 414.43 603.23 420.04 611.08 426.92 C 618.93 433.80 610.20 439.40 612.70 448.31 C 615.19 457.21 622.72 454.50 629.77 462.23 C 636.82 469.96 643.61 459.35 642.22 451.22 C 640.83 443.10 643.93 432.32 633.22 431.78 C 622.52 431.24 622.00 423.64 617.92 416.08 C 613.85 408.51 610.82 403.15 606.77 396.23 C 602.72 389.31 598.75 383.82 594.92 377.08 C 591.09 370.34 587.28 365.11 581.25 359.75 C 575.21 354.40 570.27 350.81 562.07 348.93 C 553.87 347.05 544.03 345.33 535.00 345.00 C 525.97 344.67 514.07 344.33 505.00 344.00 C 495.93 343.67 488.57 342.61 482.25 335.75 C 475.93 328.89 478.43 318.84 478.00 310.00 C 486.29 310.87 488.03 297.38 479.00 298.00 C 478.42 291.74 480.21 284.85 478.00 279.00 C 485.20 281.66 493.09 268.57 483.01 267.99 C 472.93 267.41 481.09 254.39 479.00 248.00 C 486.78 249.98 490.36 237.62 482.01 236.99 C 473.66 236.36 479.59 223.19 479.00 218.00 C 491.80 216.41 516.20 198.00 505.75 183.25 C 495.31 168.49 468.45 173.84 457.00 184.00 M 495.00 190.00  C 489.73 210.15 465.53 205.30 450.00 209.00 C 450.21 217.93 460.62 218.93 467.00 221.00 C 467.38 245.39 468.28 272.85 467.07 296.07 C 465.87 319.29 462.77 344.69 488.00 355.00 C 484.15 362.21 485.40 371.98 495.00 372.00 C 504.61 372.02 505.99 362.44 501.00 356.00 C 526.50 357.60 562.32 349.90 578.75 375.25 C 595.18 400.59 584.54 433.82 587.00 464.00 C 589.46 494.18 585.15 530.28 587.00 561.00 C 574.06 566.47 574.24 554.86 575.00 545.00 C 575.76 535.14 574.79 524.55 574.07 514.93 C 573.35 505.30 574.27 493.60 574.00 484.00 C 573.73 474.40 574.10 462.08 574.00 453.00 C 573.90 443.92 576.09 433.00 565.92 430.08 C 555.76 427.15 547.56 429.92 536.98 428.02 C 526.40 426.13 517.46 429.39 506.00 428.00 C 494.54 426.61 494.70 437.75 496.00 447.00 C 497.30 456.25 495.29 468.36 496.00 478.00 C 496.71 487.64 495.42 499.44 496.00 509.00 C 496.58 518.56 495.15 531.03 496.00 540.00 C 496.85 548.97 497.64 565.41 487.00 562.00 C 476.36 558.59 485.28 543.99 483.00 535.00 C 480.72 526.01 484.24 513.53 483.00 504.00 C 481.76 494.47 484.02 482.53 483.00 473.00 C 481.98 463.47 484.48 450.99 483.00 442.00 C 481.52 433.01 475.61 428.52 466.99 427.01 C 458.37 425.50 449.14 432.52 451.00 442.00 C 452.86 451.48 449.77 460.90 451.00 471.00 C 452.23 481.10 449.60 491.03 450.00 501.00 C 450.40 510.97 451.37 520.75 451.00 531.00 C 450.63 541.25 451.28 551.73 451.00 562.00 C 433.15 565.73 439.50 545.67 439.00 533.00 C 438.50 520.33 438.88 504.20 439.00 491.00 C 439.12 477.80 437.95 464.42 438.33 451.33 C 438.71 438.24 439.36 424.17 440.00 411.00 C 440.64 397.83 437.61 383.54 439.00 370.00 C 445.05 375.42 457.56 375.74 458.78 365.78 C 459.99 355.82 444.18 352.11 440.00 360.00 C 438.05 348.14 439.17 333.06 439.00 321.00 C 438.83 308.94 440.63 295.52 440.00 284.00 C 439.37 272.48 445.33 252.99 432.00 252.00 C 418.67 251.01 406.52 250.78 393.00 251.00 C 395.03 236.36 388.54 223.84 382.00 212.00 C 402.95 203.98 422.75 190.82 447.00 194.00 C 445.56 217.09 464.47 192.49 473.08 189.08 C 481.68 185.66 486.93 187.04 495.00 190.00 M 372.00 217.00  C 374.39 222.39 378.18 228.41 379.93 234.07 C 381.67 239.74 386.09 250.76 378.00 251.00 C 369.90 251.23 365.21 249.05 359.25 244.75 C 353.30 240.45 353.00 233.08 356.77 227.77 C 360.54 222.46 365.67 218.28 372.00 217.00 M 522.00 438.00  C 522.32 478.74 521.77 521.44 522.00 563.00 C 517.33 563.00 512.67 563.00 508.00 563.00 C 508.00 521.33 508.00 479.67 508.00 438.00 C 512.67 438.00 517.33 438.00 522.00 438.00 M 545.00 438.00  C 546.37 478.80 544.44 520.83 544.00 562.00 C 540.33 562.00 536.67 562.00 533.00 562.00 C 533.04 550.82 532.94 539.13 533.00 528.00 C 533.06 516.87 532.89 504.94 533.00 494.00 C 533.11 483.06 532.77 470.49 533.00 460.00 C 533.23 449.51 530.63 434.66 545.00 438.00 M 563.00 564.00  C 550.34 563.67 557.36 547.83 556.99 537.99 C 556.63 528.16 557.47 514.57 557.00 504.00 C 556.53 493.43 558.39 481.77 558.00 471.00 C 557.61 460.23 559.06 448.40 557.00 438.00 C 566.18 442.14 561.14 456.00 562.00 466.00 C 562.86 476.00 561.69 488.50 562.00 499.00 C 562.31 509.50 561.60 520.63 562.98 531.02 C 564.35 541.42 562.00 553.46 563.00 564.00 M 464.00 439.00  C 475.77 438.33 469.80 452.07 471.00 461.00 C 472.20 469.93 469.78 481.49 471.00 491.00 C 472.22 500.51 468.94 511.25 471.00 521.00 C 473.06 530.75 469.34 539.64 472.00 550.00 C 474.66 560.36 464.96 569.20 463.07 557.93 C 461.19 546.66 465.41 539.69 464.00 529.00 C 462.59 518.31 464.66 509.32 464.00 499.00 C 463.34 488.68 464.34 479.17 464.00 469.00 C 463.66 458.83 464.26 449.13 464.00 439.00 Z"
       id="path57" />
  </g>
  <g
     fill="#FFFFFF"
     fill-opacity="1.00"
     stroke="None"
     id="g58">
    <path
       d=" M 495.00 190.00  C 486.93 187.04 481.68 185.66 473.08 189.08 C 464.47 192.49 445.56 217.09 447.00 194.00 C 422.75 190.82 402.95 203.98 382.00 212.00 C 388.54 223.84 395.03 236.36 393.00 251.00 C 406.52 250.78 418.67 251.01 432.00 252.00 C 445.33 252.99 439.37 272.48 440.00 284.00 C 440.63 295.52 438.83 308.94 439.00 321.00 C 439.17 333.06 438.05 348.14 440.00 360.00 C 444.18 352.11 459.99 355.82 458.78 365.78 C 457.56 375.74 445.05 375.42 439.00 370.00 C 437.61 383.54 440.64 397.83 440.00 411.00 C 439.36 424.17 438.71 438.24 438.33 451.33 C 437.95 464.42 439.12 477.80 439.00 491.00 C 438.88 504.20 438.50 520.33 439.00 533.00 C 439.50 545.67 433.15 565.73 451.00 562.00 C 451.28 551.73 450.63 541.25 451.00 531.00 C 451.37 520.75 450.40 510.97 450.00 501.00 C 449.60 491.03 452.23 481.10 451.00 471.00 C 449.77 460.90 452.86 451.48 451.00 442.00 C 449.14 432.52 458.37 425.50 466.99 427.01 C 475.61 428.52 481.52 433.01 483.00 442.00 C 484.48 450.99 481.98 463.47 483.00 473.00 C 484.02 482.53 481.76 494.47 483.00 504.00 C 484.24 513.53 480.72 526.01 483.00 535.00 C 485.28 543.99 476.36 558.59 487.00 562.00 C 497.64 565.41 496.85 548.97 496.00 540.00 C 495.15 531.03 496.58 518.56 496.00 509.00 C 495.42 499.44 496.71 487.64 496.00 478.00 C 495.29 468.36 497.30 456.25 496.00 447.00 C 494.70 437.75 494.54 426.61 506.00 428.00 C 517.46 429.39 526.40 426.13 536.98 428.02 C 547.56 429.92 555.76 427.15 565.92 430.08 C 576.09 433.00 573.90 443.92 574.00 453.00 C 574.10 462.08 573.73 474.40 574.00 484.00 C 574.27 493.60 573.35 505.30 574.07 514.93 C 574.79 524.55 575.76 535.14 575.00 545.00 C 574.24 554.86 574.06 566.47 587.00 561.00 C 585.15 530.28 589.46 494.18 587.00 464.00 C 584.54 433.82 595.18 400.59 578.75 375.25 C 562.32 349.90 526.50 357.60 501.00 356.00 C 505.99 362.44 504.61 372.02 495.00 372.00 C 485.40 371.98 484.15 362.21 488.00 355.00 C 462.77 344.69 465.87 319.29 467.07 296.07 C 468.28 272.85 467.38 245.39 467.00 221.00 C 460.62 218.93 450.21 217.93 450.00 209.00 C 465.53 205.30 489.73 210.15 495.00 190.00 M 423.00 214.00  C 432.41 217.31 428.65 233.90 417.78 230.22 C 406.91 226.54 411.79 210.06 423.00 214.00 M 457.00 276.00  C 467.57 278.07 465.04 294.76 454.00 293.00 C 442.96 291.24 445.75 273.79 457.00 276.00 M 458.00 316.00  C 464.78 319.40 457.03 333.81 449.78 328.22 C 442.53 322.63 450.66 312.32 458.00 316.00 M 556.00 364.00  C 565.96 365.02 565.59 383.51 553.92 381.07 C 542.26 378.63 544.97 362.87 556.00 364.00 M 518.00 383.00  C 529.51 383.11 529.65 401.81 517.99 401.99 C 506.33 402.17 505.84 382.88 518.00 383.00 M 477.00 391.00  C 489.04 392.70 486.20 411.68 474.00 410.00 C 461.79 408.31 465.00 389.31 477.00 391.00 Z"
       id="path58" />
  </g>
  <g
     fill="#000000"
     fill-opacity="1.00"
     stroke="None"
     id="g59">
    <path
       d=" M 423.00 214.00  C 411.79 210.06 406.91 226.54 417.78 230.22 C 428.65 233.90 432.41 217.31 423.00 214.00 Z"
       id="path59" />
  </g>
  <g
     fill="#FFFFFF"
     fill-opacity="1.00"
     stroke="None"
     id="g60">
    <path
       d=" M 372.00 217.00  C 365.67 218.28 360.54 222.46 356.77 227.77 C 353.00 233.08 353.30 240.45 359.25 244.75 C 365.21 249.05 369.90 251.23 378.00 251.00 C 386.09 250.76 381.67 239.74 379.93 234.07 C 378.18 228.41 374.39 222.39 372.00 217.00 M 366.00 230.00  C 371.15 230.73 371.13 240.17 364.99 239.99 C 358.86 239.81 359.68 229.10 366.00 230.00 Z"
       id="path60" />
  </g>
  <g
     fill="#000000"
     fill-opacity="1.00"
     stroke="None"
     id="g61">
    <path
       d=" M 366.00 230.00  C 359.68 229.10 358.86 239.81 364.99 239.99 C 371.13 240.17 371.15 230.73 366.00 230.00 Z"
       id="path61" />
  </g>
  <g
     fill="#000000"
     fill-opacity="1.00"
     stroke="None"
     id="g62">
    <path
       d=" M 457.00 276.00  C 445.75 273.79 442.96 291.24 454.00 293.00 C 465.04 294.76 467.57 278.07 457.00 276.00 Z"
       id="path62" />
  </g>
  <g
     fill="#000000"
     fill-opacity="1.00"
     stroke="None"
     id="g63">
    <path
       d=" M 458.00 316.00  C 450.66 312.32 442.53 322.63 449.78 328.22 C 457.03 333.81 464.78 319.40 458.00 316.00 Z"
       id="path63" />
  </g>
  <g
     fill="#000000"
     fill-opacity="1.00"
     stroke="None"
     id="g64">
    <path
       d=" M 556.00 364.00  C 544.97 362.87 542.26 378.63 553.92 381.07 C 565.59 383.51 565.96 365.02 556.00 364.00 Z"
       id="path64" />
  </g>
  <g
     fill="#000000"
     fill-opacity="1.00"
     stroke="None"
     id="g65">
    <path
       d=" M 518.00 383.00  C 505.84 382.88 506.33 402.17 517.99 401.99 C 529.65 401.81 529.51 383.11 518.00 383.00 Z"
       id="path65" />
  </g>
  <g
     fill="#000000"
     fill-opacity="1.00"
     stroke="None"
     id="g66">
    <path
       d=" M 477.00 391.00  C 465.00 389.31 461.79 408.31 474.00 410.00 C 486.20 411.68 489.04 392.70 477.00 391.00 Z"
       id="path66" />
  </g>
  <g
     fill="#FFFFFF"
     fill-opacity="1.00"
     stroke="None"
     id="g67">
    <path
       d=" M 522.00 438.00  C 517.33 438.00 512.67 438.00 508.00 438.00 C 508.00 479.67 508.00 521.33 508.00 563.00 C 512.67 563.00 517.33 563.00 522.00 563.00 C 521.77 521.44 522.32 478.74 522.00 438.00 Z"
       id="path67" />
  </g>
  <g
     fill="#FFFFFF"
     fill-opacity="1.00"
     stroke="None"
     id="g68">
    <path
       d=" M 545.00 438.00  C 530.63 434.66 533.23 449.51 533.00 460.00 C 532.77 470.49 533.11 483.06 533.00 494.00 C 532.89 504.94 533.06 516.87 533.00 528.00 C 532.94 539.13 533.04 550.82 533.00 562.00 C 536.67 562.00 540.33 562.00 544.00 562.00 C 544.44 520.83 546.37 478.80 545.00 438.00 Z"
       id="path68" />
  </g>
  <g
     fill="#FFFFFF"
     fill-opacity="1.00"
     stroke="None"
     id="g69">
    <path
       d=" M 563.00 564.00  C 562.00 553.46 564.35 541.42 562.98 531.02 C 561.60 520.63 562.31 509.50 562.00 499.00 C 561.69 488.50 562.86 476.00 562.00 466.00 C 561.14 456.00 566.18 442.14 557.00 438.00 C 559.06 448.40 557.61 460.23 558.00 471.00 C 558.39 481.77 556.53 493.43 557.00 504.00 C 557.47 514.57 556.63 528.16 556.99 537.99 C 557.36 547.83 550.34 563.67 563.00 564.00 Z"
       id="path69" />
  </g>
  <g
     fill="#FFFFFF"
     fill-opacity="1.00"
     stroke="None"
     id="g70">
    <path
       d=" M 464.00 439.00  C 464.26 449.13 463.66 458.83 464.00 469.00 C 464.34 479.17 463.34 488.68 464.00 499.00 C 464.66 509.32 462.59 518.31 464.00 529.00 C 465.41 539.69 461.19 546.66 463.07 557.93 C 464.96 569.20 474.66 560.36 472.00 550.00 C 469.34 539.64 473.06 530.75 471.00 521.00 C 468.94 511.25 472.22 500.51 471.00 491.00 C 469.78 481.49 472.20 469.93 471.00 461.00 C 469.80 452.07 475.77 438.33 464.00 439.00 Z"
       id="path70" />
  </g>
  <g
     fill="#000000"
     fill-opacity="1.00"
     stroke="None"
     id="g71">
    <path
       d=" M 347.00 563.00  C 336.89 558.88 331.20 570.98 339.99 575.01 C 348.78 579.03 354.13 565.90 347.00 563.00 Z"
       id="path71" />
  </g>
  <g
     fill="#000000"
     fill-opacity="1.00"
     stroke="None"
     id="g72">
    <path
       d=" M 378.00 563.00  C 364.82 561.12 361.73 572.55 373.92 575.07 C 386.11 577.58 389.40 564.63 378.00 563.00 Z"
       id="path72" />
  </g>
  <g
     fill="#000000"
     fill-opacity="1.00"
     stroke="None"
     id="g73">
    <path
       d=" M 654.00 563.00  C 643.97 559.66 635.33 568.12 644.33 574.67 C 653.33 581.22 663.22 566.07 654.00 563.00 Z"
       id="path73" />
  </g>
  <g
     fill="#000000"
     fill-opacity="1.00"
     stroke="None"
     id="g74">
    <path
       d=" M 685.00 571.00  C 687.43 578.18 698.35 573.60 696.77 567.23 C 695.19 560.86 682.16 562.86 684.00 570.00 C 684.20 564.47 673.31 560.13 672.01 567.99 C 670.71 575.85 681.54 573.51 685.00 571.00 Z"
       id="path74" />
  </g>
  <g
     fill="#000000"
     fill-opacity="1.00"
     stroke="None"
     id="g78">
    <path
       d=" M 314.00 636.00  C 305.92 623.47 287.43 620.11 274.01 624.01 C 260.59 627.91 249.24 637.36 246.00 652.00 C 242.75 666.64 246.82 682.01 259.77 692.23 C 272.72 702.45 286.66 700.50 302.75 697.20 C 318.85 693.89 318.93 674.13 317.00 658.00 C 306.00 658.00 295.00 658.00 284.00 658.00 C 284.00 663.67 284.00 669.33 284.00 675.00 C 290.86 672.91 304.02 674.47 296.69 680.70 C 289.37 686.92 282.97 683.25 276.08 681.92 C 269.18 680.60 265.81 674.60 263.33 668.67 C 260.84 662.75 261.04 651.97 265.75 646.75 C 270.47 641.53 277.00 639.09 284.00 639.00 C 290.99 638.92 296.16 644.28 302.00 647.00 C 305.40 642.99 309.18 638.30 314.00 636.00 Z"
       id="path78" />
  </g>
  <g
     fill="#000000"
     fill-opacity="1.00"
     stroke="None"
     id="g79">
    <path
       d=" M 747.00 622.00  C 717.03 621.73 697.86 656.94 713.23 681.77 C 728.60 706.60 765.23 705.90 780.23 681.23 C 795.23 656.56 776.34 622.26 747.00 622.00 M 752.00 640.00  C 778.85 645.95 768.11 690.17 740.78 682.22 C 713.45 674.27 723.83 633.76 752.00 640.00 Z"
       id="path79" />
  </g>
  <g
     fill="#000000"
     fill-opacity="1.00"
     stroke="None"
     id="g80">
    <path
       d=" M 376.00 677.00  C 378.47 684.75 382.45 690.84 387.25 697.75 C 392.04 704.67 408.02 701.48 404.92 694.08 C 401.83 686.67 393.88 681.48 391.79 675.23 C 389.69 668.98 403.93 665.21 404.67 657.67 C 405.42 650.14 406.57 638.64 399.75 633.25 C 392.94 627.85 386.92 622.08 378.00 624.00 C 369.08 625.92 355.41 619.93 347.70 623.70 C 339.99 627.46 346.86 642.90 345.00 651.00 C 343.14 659.10 343.83 673.24 344.02 681.98 C 344.22 690.71 343.64 703.49 355.33 701.33 C 367.02 699.16 360.22 686.00 362.00 677.00 C 366.67 677.00 371.33 677.00 376.00 677.00 M 362.00 661.00  C 361.41 654.07 363.23 646.49 361.00 640.00 C 370.20 640.78 386.74 636.34 387.98 650.02 C 389.21 663.71 371.13 661.34 362.00 661.00 Z"
       id="path80" />
  </g>
  <g
     fill="#000000"
     fill-opacity="1.00"
     stroke="None"
     id="g81">
    <path
       d=" M 474.00 623.00  C 456.06 614.13 451.08 641.50 446.31 652.31 C 441.54 663.11 434.68 680.56 429.78 691.78 C 424.87 702.99 438.23 702.90 443.70 699.70 C 449.16 696.50 448.35 682.32 457.00 685.00 C 465.65 687.68 478.64 680.61 482.23 688.77 C 485.82 696.93 488.24 702.77 497.93 700.93 C 507.61 699.08 501.61 687.88 498.77 682.23 C 495.93 676.57 493.83 667.78 490.77 662.23 C 487.71 656.68 486.03 647.02 482.77 642.23 C 479.51 637.44 478.94 625.44 474.00 623.00 M 466.00 645.00  C 468.83 653.36 471.91 661.71 475.00 670.00 C 469.09 669.41 463.18 668.57 457.00 669.00 C 460.39 661.24 462.34 652.31 466.00 645.00 Z"
       id="path81" />
  </g>
  <g
     fill="#000000"
     fill-opacity="1.00"
     stroke="None"
     id="g82">
    <path
       d=" M 545.00 640.00  C 555.20 641.60 564.74 637.87 575.00 640.00 C 585.26 642.13 585.17 621.59 576.00 623.00 C 566.84 624.42 556.92 624.43 548.00 623.00 C 539.08 621.57 527.41 621.54 528.00 632.00 C 528.59 642.46 528.04 652.06 528.00 662.00 C 527.96 671.94 528.62 682.41 528.22 691.78 C 527.82 701.15 539.48 704.93 544.23 698.23 C 548.98 691.52 544.87 679.49 545.00 672.00 C 554.39 672.91 560.26 670.78 570.00 672.00 C 579.74 673.22 575.59 663.39 577.00 657.00 C 566.86 654.71 555.59 656.64 545.00 656.00 C 545.00 650.67 545.00 645.33 545.00 640.00 Z"
       id="path82" />
  </g>
  <g
     fill="#000000"
     fill-opacity="1.00"
     stroke="None"
     id="g83">
    <path
       d=" M 653.00 623.00  C 622.30 618.61 596.72 647.16 608.08 675.92 C 619.44 704.69 654.59 706.13 673.75 685.75 C 692.91 665.36 681.69 627.10 653.00 623.00 M 650.00 640.00  C 665.42 643.20 670.94 664.96 659.75 675.75 C 648.56 686.54 629.49 685.09 623.23 668.77 C 616.97 652.45 632.86 636.45 650.00 640.00 Z"
       id="path83" />
  </g>
  <g
     fill="#FFFFFF"
     fill-opacity="1.00"
     stroke="None"
     id="g84">
    <path
       d=" M 362.00 661.00  C 371.13 661.34 389.21 663.71 387.98 650.02 C 386.74 636.34 370.20 640.78 361.00 640.00 C 363.23 646.49 361.41 654.07 362.00 661.00 Z"
       id="path84" />
  </g>
  <g
     fill="#FFFFFF"
     fill-opacity="1.00"
     stroke="None"
     id="g85">
    <path
       d=" M 650.00 640.00  C 632.86 636.45 616.97 652.45 623.23 668.77 C 629.49 685.09 648.56 686.54 659.75 675.75 C 670.94 664.96 665.42 643.20 650.00 640.00 Z"
       id="path85" />
  </g>
  <g
     fill="#FFFFFF"
     fill-opacity="1.00"
     stroke="None"
     id="g86">
    <path
       d=" M 752.00 640.00  C 723.83 633.76 713.45 674.27 740.78 682.22 C 768.11 690.17 778.85 645.95 752.00 640.00 Z"
       id="path86" />
  </g>
  <g
     fill="#FFFFFF"
     fill-opacity="1.00"
     stroke="None"
     id="g87">
    <path
       d=" M 466.00 645.00  C 462.34 652.31 460.39 661.24 457.00 669.00 C 463.18 668.57 469.09 669.41 475.00 670.00 C 471.91 661.71 468.83 653.36 466.00 645.00 Z"
       id="path87" />
  </g>
</svg>
